<?xml version="1.0" encoding="utf-8"?>
<!-- Generator: Adobe Illustrator 26.0.1, SVG Export Plug-In . SVG Version: 6.00 Build 0)  -->
<svg version="1.1" id="Слой_1" xmlns="http://www.w3.org/2000/svg" xmlns:xlink="http://www.w3.org/1999/xlink" x="0px" y="0px"
	 viewBox="0 0 1366 768" style="enable-background:new 0 0 1366 768;" xml:space="preserve">
<style type="text/css">
	.st0{fill:#FFFFFF;stroke:#000000;stroke-miterlimit:10;}
</style>
<path class="st0" d="M419.5-12.5c-0.37,0.5-3.88,5-10,5c-0.62,0-6.33-0.1-10-5c0.37-0.5,3.88-5,10-5
	C410.12-17.5,415.83-17.4,419.5-12.5z"/>
<circle class="st0" cx="409.5" cy="-12.5" r="5"/>
<circle class="st0" cx="409.5" cy="-12.5" r="1"/>
<path class="st0" d="M366.5,287.5c-0.37,0.5-3.88,5-10,5c-0.62,0-6.33-0.1-10-5c0.37-0.5,3.88-5,10-5
	C357.12,282.5,362.83,282.6,366.5,287.5z"/>
<circle class="st0" cx="356.5" cy="287.5" r="5"/>
<circle class="st0" cx="356.5" cy="287.5" r="1"/>
<path class="st0" d="M356.75,279.5l0,1c0,0.14-0.11,0.25-0.25,0.25l0,0c-0.14,0-0.25-0.11-0.25-0.25l0-1c0-0.14,0.11-0.25,0.25-0.25
	l0,0C356.64,279.25,356.75,279.36,356.75,279.5z"/>
<path class="st0" d="M362.89,280.61l-0.42,0.91c-0.06,0.13-0.21,0.18-0.33,0.12l0,0c-0.13-0.06-0.18-0.21-0.12-0.33l0.42-0.91
	c0.06-0.13,0.21-0.18,0.33-0.12l0,0C362.89,280.33,362.95,280.48,362.89,280.61z"/>
<path class="st0" d="M368,283.82l-0.77,0.64c-0.11,0.09-0.26,0.07-0.35-0.03l0,0c-0.09-0.11-0.07-0.26,0.03-0.35l0.77-0.64
	c0.11-0.09,0.26-0.07,0.35,0.03l0,0C368.12,283.58,368.1,283.73,368,283.82z"/>
<path class="st0" d="M350.39,280.96l0.42,0.91c0.06,0.13,0,0.27-0.12,0.33l0,0c-0.13,0.06-0.27,0-0.33-0.12l-0.42-0.91
	c-0.06-0.13,0-0.27,0.12-0.33l0,0C350.18,280.78,350.33,280.83,350.39,280.96z"/>
<path class="st0" d="M345.04,284l0.77,0.64c0.11,0.09,0.12,0.25,0.03,0.35l0,0c-0.09,0.11-0.25,0.12-0.35,0.03l-0.77-0.64
	c-0.11-0.09-0.12-0.25-0.03-0.35l0,0C344.77,283.93,344.93,283.91,345.04,284z"/>
</svg>
